<?xml version="1.0" encoding="utf-8"?>
<!-- Generator: Adobe Illustrator 19.1.0, SVG Export Plug-In . SVG Version: 6.00 Build 0)  -->
<svg version="1.1" id="Laag_3" xmlns="http://www.w3.org/2000/svg" xmlns:xlink="http://www.w3.org/1999/xlink" x="0px" y="0px"
	 viewBox="0 0 777 126.2" style="enable-background:new 0 0 777 126.2;" xml:space="preserve">
<style type="text/css">
	.st0{fill:#231F20;}
	.st1{fill:#F15B5B;}
</style>
<g>
	<path class="st0" d="M97.3,15.9c0,6.2-4.4,10.5-10.7,10.5H72.5v82.8c0,7.1-4.9,11.8-11.7,11.8c-6.9,0-11.8-4.8-11.8-11.8V26.4H34.4
		c-6.1-0.2-10.2-4.4-10.2-10.5c0-6.1,4.1-10.5,10.2-10.7h52.2C92.8,5.2,97.3,9.6,97.3,15.9z"/>
	<path class="st0" d="M211.8,15.9v67.8c0,23.3-15.9,38.1-38.1,38.1c-22,0-37.5-14.1-37.5-37.4V16c0-6.9,4.8-11.7,11.7-11.7
		c7.1,0,11.8,4.8,11.8,11.7v68.3c0,10.7,5.6,16.7,14.4,16.7c8.9,0,14.5-6.1,14.5-16.7V15.9c0-6.7,4.8-11.5,11.7-11.5
		C207,4.4,211.8,9.1,211.8,15.9z"/>
	<path class="st0" d="M323.8,15.9c0,6.2-4.4,10.5-10.7,10.5H299v82.8c0,7.1-4.9,11.8-11.6,11.8c-6.9,0-11.8-4.8-11.8-11.8V26.4
		h-14.6c-6.1-0.2-10.2-4.4-10.2-10.5c0-6.1,4.1-10.5,10.2-10.7h52.2C319.4,5.2,323.8,9.6,323.8,15.9z"/>
	<path class="st0" d="M430.7,109.8c0,6.1-4.3,10.3-10.2,10.3h-42.2c-6.9,0-11.7-4.8-11.7-11.7V16.8c0-6.9,4.8-11.7,11.7-11.7h41.4
		c5.9,0,10.2,4.3,10.2,10.2c0,6.2-4.3,10.5-10.2,10.5H390v25.4h23.6c5.7,0,9.7,3.9,9.7,9.7s-3.9,9.7-9.7,9.7H390v28.7h30.5
		C426.5,99.5,430.7,103.7,430.7,109.8z"/>
	<path class="st0" d="M478.4,108.5V16c0-6.9,4.8-11.7,11.7-11.7s11.7,4.8,11.7,11.7V99h26.9c6.1,0,10.5,4.3,10.5,10.5
		c0,6.2-4.4,10.7-10.5,10.7h-38.6C483.2,120.1,478.4,115.4,478.4,108.5z"/>
	<path class="st0" d="M577.4,104.2l28.1-88c2.1-7.4,7.1-11.8,14.3-11.8c7.4,0,12.3,4.4,14.6,12l28.1,88c0.7,2.1,1,3.8,1,5.3
		c0,6.7-4.8,11.3-11.5,11.3c-5.6,0-9.5-3.1-11.2-9L636,95.8h-33.5l-4.8,15.9c-1.8,6.4-5.4,9.2-10.8,9.2c-6.4,0-10.8-4.4-10.8-10.8
		C576.1,108.6,576.6,106.7,577.4,104.2z M631.3,78.3l-12.2-41.9l-11.8,41.9H631.3z"/>
	<g>
		<path class="st1" d="M696.5,57.1h50.8l5.1-14c1.1-3.1-1.2-6.4-4.5-6.4h-52.2c-3.3,0-5.6,3.3-4.5,6.4L696.5,57.1z"/>
		<polygon class="st1" points="736.6,86.3 743.7,67.1 700.2,67.1 707.2,86.3 		"/>
		<path class="st1" d="M710.9,96.3l8.3,22.7c0.9,2.6,4.6,2.6,5.5,0l8.3-22.7H710.9z"/>
	</g>
</g>
</svg>
